<?xml version="1.0" encoding="UTF-8"?>
<svg version="1.1" xmlns="http://www.w3.org/2000/svg" width="64" height="64">
<path d="M0 0 C21.91080555 -2.02877829 21.91080555 -2.02877829 28.01953125 1.00195312 C31.18725903 3.71539436 33.02220741 7.2804727 34.86474609 10.9453125 C36.15423379 13.27914657 37.65272052 15.31793703 39.26953125 17.4375 C39.83623535 18.18459229 40.40293945 18.93168457 40.98681641 19.70141602 C42.09981034 21.16479693 43.21527617 22.62630191 44.33349609 24.08569336 C46.62850507 27.2673591 47.96270885 29.1465653 48.13671875 33.12890625 C46.72689925 36.68979056 44.68071202 39.21875836 42.125 42 C41.12785377 43.12813152 40.13314291 44.25841939 39.140625 45.390625 C38.62564453 45.97521484 38.11066406 46.55980469 37.58007812 47.16210938 C34.90488588 50.27379776 32.39148945 53.50961186 29.875 56.75 C25.07639715 62.92360285 25.07639715 62.92360285 24 64 C22.21928754 64.08726223 20.4351686 64.10699041 18.65234375 64.09765625 C17.57275391 64.09443359 16.49316406 64.09121094 15.38085938 64.08789062 C14.24455078 64.07951172 13.10824219 64.07113281 11.9375 64.0625 C10.79732422 64.05798828 9.65714844 64.05347656 8.48242188 64.04882812 C5.65489649 64.03699747 2.8274736 64.0205141 0 64 C0.38736646 58.60107996 2.46677678 55.68459037 6 51.8125 C6.99515326 50.67349291 7.98993867 49.53416432 8.984375 48.39453125 C10.45892365 46.73116845 11.9368294 45.07085999 13.41601562 43.41162109 C14.70724182 41.95268499 15.97912253 40.47669567 17.25 39 C17.99765625 38.154375 18.7453125 37.30875 19.515625 36.4375 C21.2018394 34.12907926 21.2018394 34.12907926 21.046875 31.56640625 C19.64493801 28.12956819 17.45829245 25.65377922 15 22.9375 C14.00143739 21.79381757 13.00539185 20.64793316 12.01171875 19.5 C11.50946777 18.92121094 11.0072168 18.34242187 10.48974609 17.74609375 C8.18031255 15.03926505 5.97615443 12.26163377 3.8125 9.4375 C3.07644531 8.48746094 2.34039062 7.53742187 1.58203125 6.55859375 C0 4 0 4 0 0 Z " fill="#0A2742" transform="translate(8,0)"/>
</svg>
